<svg width="99" height="99" viewBox="0 0 99 99" fill="none" xmlns="http://www.w3.org/2000/svg">
<path d="M49.5 99C76.8381 99 99 76.8381 99 49.5C99 22.1619 76.8381 0 49.5 0C22.1619 0 0 22.1619 0 49.5C0 76.8381 22.1619 99 49.5 99Z" fill="#324A5E"/>
<path d="M54.7961 40.7562L55.2295 40.6363C58.4364 39.6815 61.5825 38.5345 64.6504 37.2016C67.7618 35.986 70.6813 34.3305 73.3188 32.2862C76.121 30.0685 78.23 27.1013 79.3987 23.7324C79.6495 23.1785 79.8334 22.597 79.9465 22C75.7327 27.7306 59.0279 28.324 59.0279 28.324L62.9709 24.7274C51.4957 24.7651 40.3188 28.3696 31 35.0376C37.3074 35.7097 43.2402 38.3489 47.9516 42.5784C50.215 41.8831 52.5206 41.3796 54.8021 40.7802L54.7961 40.7562ZM81 40.1927C81 40.1927 65.5834 38.9939 49.5769 44.155C51.713 46.3756 53.4954 48.9085 54.8623 51.6658C63.2779 46.9963 74.9441 41.0319 81 40.1927ZM55.9157 54.0575C56.9135 56.6057 57.5555 59.2781 57.824 62L72.4941 46.9723L55.9157 54.0575Z" fill="#F99D1E"/>
<path d="M62 38V71.904C62 75.2687 53.051 78 42 78C30.9489 78 22 75.2687 22 71.904V38H62Z" fill="#E6E9EE"/>
<path d="M42 45C53.0457 45 62 42.0899 62 38.5C62 34.9101 53.0457 32 42 32C30.9543 32 22 34.9101 22 38.5C22 42.0899 30.9543 45 42 45Z" fill="#CED5E0"/>
<path d="M42 41C45.866 41 49 39.8807 49 38.5C49 37.1193 45.866 36 42 36C38.134 36 35 37.1193 35 38.5C35 39.8807 38.134 41 42 41Z" fill="#324A5E"/>
</svg>
